HIERARCHY
ROOT ui
{
	 OFFSET 0 0 0
	 CHANNELS 3 XPosition YPosition Z Position
	 EndSite
	 {
	 OFFSET 0 -1 0
	 }
}
ROOT li
{
	 OFFSET 0 0 0
	 CHANNELS 3 XPosition YPosition Z Position
	 EndSite
	 {
	 OFFSET 0 -1 0
	 }
}
ROOT ul
{
	 OFFSET 0 0 0
	 CHANNELS 3 XPosition YPosition Z Position
	 EndSite
	 {
	 OFFSET 0 -1 0
	 }
}
ROOT ll
{
	 OFFSET 0 0 0
	 CHANNELS 3 XPosition YPosition Z Position
	 EndSite
	 {
	 OFFSET 0 -1 0
	 }
}
ROOT tt
{
	 OFFSET 0 0 0
	 CHANNELS 3 XPosition YPosition Z Position
	 EndSite
	 {
	 OFFSET 0 -1 0
	 }
}
ROOT tb
{
	 OFFSET 0 0 0
	 CHANNELS 3 XPosition YPosition Z Position
	 EndSite
	 {
	 OFFSET 0 -1 0
	 }
}
ROOT td
{
	 OFFSET 0 0 0
	 CHANNELS 3 XPosition YPosition Z Position
	 EndSite
	 {
	 OFFSET 0 -1 0
	 }
}
ROOT v
{
	 OFFSET 0 0 0
	 CHANNELS 3 XPosition YPosition Z Position
	 EndSite
	 {
	 OFFSET 0 -1 0
	 }
}
ROOT bn
{
	 OFFSET 0 0 0
	 CHANNELS 3 XPosition YPosition Z Position
	 EndSite
	 {
	 OFFSET 0 -1 0
	 }
}
MOTION
Frames: 13
Frame Time: 0.002
-0.0042058157920837405	-6.272169947624206E-4	0		0.5260223388671875	-2.36232568359375	0		-1.075755859375	-0.047377056121826175	0		-0.7617094116210937	-2.234795654296875	0		1.4854295654296874	-0.5192990112304687	0		3.17874462890625	-0.022053728103637694	0		4.6537451171875	0.06546157836914063	0		5.57832421875	0.1157550048828125	0		-0.27532391357421876	5.893544921875	0		
-0.02612677574157715	0.0031568629741668703	0		0.472855224609375	-2.3572705078125	0		-1.0336961669921876	-0.04515472030639649	0		-0.687975830078125	-2.24094677734375	0		1.507396240234375	-0.5211445922851563	0		3.15885302734375	-0.015639448165893556	0		4.643798828125	0.06560863494873047	0		5.57526611328125	0.10472719573974609	0		-0.25853814697265626	5.902955078125	0		
0.0057953081130981444	-0.0026315209865570067	0		0.4845096130371094	-2.363899169921875	0		-1.0697218017578125	-0.04510422897338867	0		-0.7462296752929688	-2.2396982421875	0		1.493263671875	-0.5266075439453125	0		3.17965576171875	-0.0326575813293457	0		4.63869775390625	0.05670637130737305	0		5.5762548828125	0.10365829467773438	0		-0.2549370422363281	5.9005029296875	0		
0.008838091850280762	0.00889283275604248	0		0.5072866821289063	-2.353642578125	0		-1.0197080078125	-0.03597309875488281	0		-0.6774744262695312	-2.232807373046875	0		1.5232269287109375	-0.5175352172851563	0		3.178933837890625	5.67779004573822E-4	0		4.64976806640625	0.06964620971679687	0		5.59126513671875	0.11045443725585938	0		-0.2193376770019531	5.904708984375	0		
0.006639737129211426	0.004483788013458252	0		0.5307976684570312	-2.362387451171875	0		-1.0739188232421875	-0.040706825256347653	0		-0.7548573608398438	-2.23232568359375	0		1.509963623046875	-0.5229812622070312	0		3.166505615234375	-0.0250599365234375	0		4.65263037109375	0.06970021057128906	0		5.5721435546875	0.11165108489990234	0		-0.21985816955566406	5.9063125	0		
-0.017666265487670897	-0.0026663289070129395	0		0.5293114624023437	-2.36484326171875	0		-0.9932246704101563	-0.04790835952758789	0		-0.6854122924804688	-2.24243701171875	0		1.51068115234375	-0.52355615234375	0		3.187326171875	-0.02101954460144043	0		4.65831787109375	0.060759918212890625	0		5.57883544921875	0.10260885620117187	0		-0.21948287963867188	5.90791943359375	0		
-0.0219333438873291	9.837769865989685E-4	0		0.47583938598632813	-2.359698974609375	0		-1.0665250244140625	-0.04640008163452149	0		-0.7578717651367187	-2.23696875	0		1.51625390625	-0.530158447265625	0		3.183957275390625	-0.02667730140686035	0		4.6480234375	0.06104320526123047	0		5.57951123046875	0.09968458557128906	0		-0.2513223114013672	5.900900390625	0		
0.0046691508293151855	3.0906200408935546E-4	0		0.5141489868164062	-2.368550537109375	0		-1.02892724609375	-0.0471085090637207	0		-0.7085523071289063	-2.245837646484375	0		1.4998695068359376	-0.5254833984375	0		3.173716552734375	-0.013213109016418458	0		4.6486328125	0.06025941848754883	0		5.589123046875	0.09872003936767579	0		-0.21615829467773437	5.9051552734375	0		
-0.013731347084045411	0.007162131786346435	0		0.4806324462890625	-2.355568115234375	0		-1.057330810546875	-0.04006195831298828	0		-0.7510474853515625	-2.231658447265625	0		1.5233802490234376	-0.5232207641601563	0		3.18212158203125	-0.02391085624694824	0		4.64915673828125	0.05953630065917969	0		5.580650390625	0.09802515411376952	0		-0.2492327575683594	5.90019580078125	0		
0.009658182144165039	0.0025684990882873537	0		0.5328103637695313	-2.364525146484375	0		-1.02797900390625	-0.04765097427368164	0		-0.6818733520507813	-2.241722900390625	0		1.4977020263671874	-0.5303646240234375	0		3.20371337890625	-0.010705146789550781	0		4.6495966796875	0.05887939071655274	0		5.58520654296875	0.10725740814208984	0		-0.21334339904785157	5.9034814453125	0		
-0.01597348117828369	0.003559354066848755	0		0.4770601501464844	-2.3612236328125	0		-1.0646243896484375	-0.04747162628173828	0		-0.681654052734375	-2.241987060546875	0		1.5130810546875	-0.5259321899414062	0		3.173932861328125	-0.0228612117767334	0		4.64995556640625	0.05829247283935547	0		5.570671875	0.11578449249267578	0		-0.08036540985107422	5.9256806640625	0		
0.006256813049316406	-9.683960080146789E-4	0		0.5311549072265624	-2.367143798828125	0		-1.0273519287109374	-0.048117591857910154	0		-0.756452880859375	-2.238368408203125	0		1.4982750244140626	-0.5311144409179688	0		3.190196533203125	-0.02448484230041504	0		4.65513232421875	0.04871940612792969	0		5.58173681640625	0.09609579467773438	0		-0.24709254455566407	5.8993251953125	0		
-0.015491738319396972	0.0030364930629730225	0		0.4523770446777344	-2.356505859375	0		-1.060101806640625	-0.04394144439697266	0		-0.7423925170898438	-2.242744384765625	0		1.5015018310546875	-0.5274617309570313	0		3.189307373046875	-0.03285838317871094	0		4.64351171875	0.06340771484375	0		5.5719453125	0.09572206115722656	0		-0.244656982421875	5.89706494140625	0		
